HIERARCHY
ROOT Hips
{
  OFFSET -331.093 83.8371 -317.828
  CHANNELS 6 Xposition Yposition Zposition Zrotation Xrotation Yrotation
  JOINT LeftUpLeg
  {
    OFFSET 8.64259 1.95398 -2.38835
    CHANNELS 3 Zrotation Xrotation Yrotation
    JOINT LeftLeg
    {
      OFFSET 43.7702 0 0
      CHANNELS 3 Zrotation Xrotation Yrotation
      JOINT LeftFoot
      {
        OFFSET 40.6238 0 0
        CHANNELS 3 Zrotation Xrotation Yrotation
        JOINT LeftToeBase
        {
          OFFSET 12.7242 0 0
          CHANNELS 3 Zrotation Xrotation Yrotation
          End Site
          {
            OFFSET 0 0 0
          }
        }
      }
    }
  }
  JOINT RightUpLeg
  {
    OFFSET -8.2249 1.95398 -2.59336
    CHANNELS 3 Zrotation Xrotation Yrotation
    JOINT RightLeg
    {
      OFFSET 43.5653 0 0
      CHANNELS 3 Zrotation Xrotation Yrotation
      JOINT RightFoot
      {
        OFFSET 40.6238 0 0
        CHANNELS 3 Zrotation Xrotation Yrotation
        JOINT RightToeBase
        {
          OFFSET 12.7242 0 0
          CHANNELS 3 Zrotation Xrotation Yrotation
          End Site
          {
            OFFSET 0 0 0
          }
        }
      }
    }
  }
  JOINT Spine
  {
    OFFSET 0.165834 0.87714 6.61349
    CHANNELS 3 Zrotation Xrotation Yrotation
    JOINT Spine1
    {
      OFFSET 7.38963 1.71661e-005 0
      CHANNELS 3 Zrotation Xrotation Yrotation
      JOINT Spine2
      {
        OFFSET 11.9445 1.14441e-005 0
        CHANNELS 3 Zrotation Xrotation Yrotation
        JOINT Spine3
        {
          OFFSET 14.7254 4.19617e-005 0
          CHANNELS 3 Zrotation Xrotation Yrotation
          JOINT Spine4
          {
            OFFSET 10.9679 0 0
            CHANNELS 3 Zrotation Xrotation Yrotation
            JOINT RightShoulder
            {
              OFFSET 2.46616 -1.6653 3.69651
              CHANNELS 3 Zrotation Xrotation Yrotation
              JOINT RightArm
              {
                OFFSET 13.0012 0 0
                CHANNELS 3 Zrotation Xrotation Yrotation
                JOINT RightForeArm
                {
                  OFFSET 28.7848 1.62311e-005 0
                  CHANNELS 3 Zrotation Xrotation Yrotation
                  JOINT RightHand
                  {
                    OFFSET 26.5688 1.62095e-005 0
                    CHANNELS 3 Zrotation Xrotation Yrotation
                    End Site
                    {
                      OFFSET 0 0 0
                    }
                  }
                }
              }
            }
            JOINT LeftShoulder
            {
              OFFSET 2.38034 -1.29275 -3.7523
              CHANNELS 3 Zrotation Xrotation Yrotation
              JOINT LeftArm
              {
                OFFSET 16.3182 6.07031e-005 0
                CHANNELS 3 Zrotation Xrotation Yrotation
                JOINT LeftForeArm
                {
                  OFFSET 27.0901 0 0
                  CHANNELS 3 Zrotation Xrotation Yrotation
                  JOINT LeftHand
                  {
                    OFFSET 24.5451 1.51738e-005 0
                    CHANNELS 3 Zrotation Xrotation Yrotation
                    End Site
                    {
                      OFFSET 0 0 0
                    }
                  }
                }
              }
            }
            JOINT Neck
            {
              OFFSET 5.0226 -0.0266342 0
              CHANNELS 3 Zrotation Xrotation Yrotation
              JOINT Head
              {
                OFFSET 6.69364 2.86102e-005 0
                CHANNELS 3 Zrotation Xrotation Yrotation
                End Site
                {
                  OFFSET 0 0 0
                }
              }
            }
          }
        }
      }
    }
  }
}
MOTION
Frames:	12
Frame Time:	0.0416667
-433.008 709.046 -111.941 63.6281 -45.164 73.3783 168.185 82.6311 119.639 -4.24044 3.78159 -2.81185 23.7524 -19.3352 -38.2859 21.7948 -6.61814 -13.8374 133.379 -63.2637 28.8278 -2.98894 -19.3452 0.0111891 87.6846 15.0042 5.63143 2.15544 -2.06866 21.6979 1.455 8.41553 -89.4748 10.0336 3.13857 0.78409 -1.63373 3.17005 0.645055 -24.1917 2.75773 1.69169 -4.1791 2.75774 1.69169 95.5623 -30.6616 -95.1614 43.6975 -11.94 2.45689 -12.5805 7.10942 -101.52 -20.4487 -0.840301 -0.456682 -93.4154 -44.4706 72.5572 -38.0327 -7.73128 21.9141 11.7272 4.99317 -67.8509 32.1383 0.615748 -2.09626 6.38972 -4.58865 -1.28098 0.0967942 -4.29037 -2.58185 
-265.174 729.23 68.0013 68.1692 -45.1348 74.9084 -173.973 70.6672 101.666 -3.92618 7.67285 -2.56349 37.3361 -20.2337 -34.9665 10.0706 -12.8886 -17.8862 108.281 -68.7821 1.60259 -1.29319 -13.2747 0.0245779 84.6416 15.9029 6.8624 2.24032 -2.1388 22.4488 0.928324 8.83241 -89.1986 9.19392 2.21038 1.42953 -2.47582 2.27115 1.33084 -25.0143 1.67863 2.02772 -5.00167 1.67863 2.02772 94.9417 -32.8233 -95.9022 43.6917 -12.0992 6.75553 -20.6872 0.255529 -90.5636 -22.6836 -1.11656 0.534538 -94.4836 -45.9684 71.3633 -36.7648 -8.54914 14.8919 14.0522 3.79438 -69.9684 32.6569 0.80599 -1.53458 6.51786 -3.09086 -1.74206 0.792654 -2.74448 -2.49283 
-67.673 733.685 269.175 69.0881 -43.8279 73.6945 -172.19 58.2996 99.9543 -4.08671 0.672246 -2.20784 47.9501 -16.2368 -35.6509 8.73027 -13.5745 -16.857 86.6795 -68.2458 -21.7791 -0.532539 -11.549 0.0426777 87.6551 17.4052 6.82556 5.04984 -1.69088 23.1573 0.355506 8.84759 -88.9518 9.16421 1.1783 1.99176 -2.50763 1.26482 1.93799 -25.0318 0.525384 2.25368 -5.0192 0.525392 2.25367 94.7197 -33.9956 -96.0676 44.0085 -12.2872 12.1545 -19.7993 -2.39808 -80.4857 -23.4357 -1.37737 1.65039 -95.4758 -46.7164 70.0898 -35.0378 -8.34484 7.49982 16.8582 3.10876 -73.4794 32.6419 1.11016 -0.562883 7.0376 -2.02583 -1.91625 0.537926 -1.65363 -2.4972 
147.188 717.862 471.364 67.5793 -40.0965 71.422 -174.207 42.1263 102.315 -3.93792 4.60951 -1.76628 63.5768 -20.0941 -34.3419 11.8328 -12.0261 -15.8889 79.4458 -64.8046 -31.4242 -0.324544 -15.601 0.0542503 98.6368 20.9948 5.45081 7.27705 -1.15211 21.4673 -0.342609 8.61885 -88.8274 9.63193 -0.153377 2.33716 -2.04113 -0.050429 2.34163 -24.5611 -0.848534 2.18315 -4.54849 -0.848553 2.18315 94.2932 -34.3109 -96.8019 44.5395 -11.9494 19.6093 -16.8676 -6.31248 -74.2 -23.951 -1.36572 1.45488 -95.1639 -45.6683 70.2259 -32.4241 -6.01907 -0.885112 16.9818 2.49115 -78.002 33.125 1.32115 0.0385216 8.05511 -1.17622 -1.92751 0.451261 -0.808889 -2.89156 
364.353 682.642 663.481 67.8002 -37.8504 71.9422 -174.642 17.9652 108.351 -4.19926 12.5791 -1.84343 89.1097 -24.0111 -27.889 14.2843 -10.7856 -16.6607 90.1971 -53.6117 -34.3893 -0.299141 -21.6163 0.0649705 117.49 34.2331 2.74456 9.45683 -0.711892 20.2767 -0.766296 8.51855 -88.9646 9.84239 -1.05803 2.13841 -1.82993 -0.962892 2.18287 -24.3588 -1.65172 1.72173 -4.34613 -1.6517 1.72173 93.9629 -34.9544 -97.2726 43.9259 -11.6271 27.5682 -15.5782 -9.12728 -72.0298 -21.6982 -1.22051 1.31528 -93.8786 -44.0358 71.6974 -31.1551 -4.76351 -8.60088 16.3916 2.06315 -84.9367 36.7308 0.68865 -2.18438 7.85657 -0.44674 -1.78352 0.267491 -0.115674 -2.38735 
590.383 648.084 861.655 69.3943 -39.0914 74.2646 -170.227 -8.42883 113.119 -4.61197 18.7464 -2.22395 111.294 -20.0271 -21.0739 15.7381 -10.164 -20.6532 157.867 -11.6602 -25.4595 -0.3137 -37.4651 0.082474 17.8309 76.7641 108.194 8.9151 -0.800656 20.3025 -0.88838 8.50817 -89.1723 9.86527 -1.39523 1.75504 -1.80622 -1.31666 1.81472 -24.3418 -1.85816 1.2546 -4.32916 -1.85815 1.25461 94.1253 -35.3433 -96.8791 42.7094 -12.5035 34.4717 -15.4164 -11.8111 -72.4106 -17.9933 -0.986953 0.949538 -92.4869 -42.4962 73.4336 -31.7796 -4.64686 -11.2422 16.0726 -5.1071 -92.854 37.5335 0.376187 -3.08183 6.5185 0.543956 -1.58521 -0.819338 0.830879 -1.14213 
831.422 623.832 1066.28 69.885 -39.5627 76.876 -162.801 -27.8089 118.871 -4.88729 28.5124 -2.93546 118.434 -14.8327 -20.6663 18.7381 -8.99829 -24.1114 -121.374 52.925 -19.1567 -0.602588 -30.6554 0.131516 -33.8613 23.9673 74.9107 9.08911 -0.686948 18.7112 -1.10346 8.36905 -89.4873 10.1465 -1.96495 1.18409 -1.52359 -1.91094 1.26943 -24.0695 -2.22996 0.538567 -4.05689 -2.22994 0.538569 93.9853 -34.5805 -97.3178 42.5167 -13.7516 40.5436 -13.7537 -13.5972 -72.9346 -17.5813 -0.956117 0.848698 -91.1532 -41.1607 75.2033 -31.9627 -4.41015 -12.1007 15.8987 -6.12026 -103.475 34.5209 -0.0563746 -4.2746 4.88142 2.1145 -1.02089 -1.84886 2.26155 -0.050695 
1085.79 615.846 1273.51 71.3048 -38.6331 79.118 -154.636 -38.7619 127.146 -4.70125 38.2299 -3.83401 113.448 -11.8499 -21.4015 15.0588 -10.6255 -26.193 -110.075 78.2875 -4.84981 -1.29571 -16.9036 0.297288 -30.8204 13.8369 41.8265 8.34146 -0.806063 18.871 -1.44921 8.30871 -89.7903 10.2666 -2.79151 0.656196 -1.40161 -2.75992 0.77848 -23.9609 -2.85955 -0.213793 -3.94821 -2.85957 -0.213809 93.7976 -33.5859 -97.9126 42.6926 -13.9957 45.7578 -12.6109 -13.8907 -73.9526 -16.3865 -0.788058 -0.0585542 -90.533 -40.6117 76.0693 -32.0346 -3.70525 -11.5443 14.1061 -8.37215 -112.519 31.9736 -0.565028 -5.90521 3.38927 3.5482 0.0230086 -3.1768 3.48343 0.640436 
1360.37 653.282 1498.04 71.3764 -37.5189 79.7351 -146.018 -46.3108 136.389 -4.80455 46.1764 -3.44154 113.199 -4.36354 -18.878 10.0932 -12.8967 -15.4822 -139.02 84.5077 30.9491 -2.60452 -12.7005 0.793357 -15.2715 15.873 27.7343 5.8262 -1.28017 20.0799 -1.71131 8.1683 -90.0101 10.5446 -3.41316 0.285154 -1.12194 -3.3973 0.435263 -23.692 -3.34087 -0.755005 -3.67938 -3.34087 -0.755019 94.1243 -32.0444 -97.6684 43.3342 -13.8104 48.891 -13.205 -13.4102 -75.3787 -14.512 -0.557117 -1.53608 -90.4227 -40.7315 76.2839 -31.7806 -2.08089 -10.7301 12.2907 -9.23967 -119.473 29.9218 -0.924817 -7.24515 2.38937 4.37748 0.495676 -3.83497 4.20052 2.38849 
1633.87 715.621 1731.89 69.7757 -37.2854 76.3062 -143.101 -56.1729 138.128 -5.38054 38.7302 -1.04216 113.081 -5.33559 -20.9442 7.78645 -14.1181 -15.5572 -128.973 87.0071 23.8838 -4.57781 -14.7533 1.93227 4.9125 18.2853 20.6766 3.2802 -1.68355 19.9599 -1.84164 7.87838 -89.8515 11.1325 -3.59676 0.643597 -0.533673 -3.56494 0.801461 -23.1087 -3.62369 -0.468586 -3.09608 -3.62367 -0.468585 94.3393 -31.7414 -97.3244 43.9925 -12.7696 50.6567 -13.0559 -11.2036 -77.1559 -14.381 -0.489447 -2.03533 -90.1461 -40.8616 76.7743 -32.0007 0.710622 -9.22192 12.9715 -9.26605 -120.465 29.6413 -0.878997 -7.11732 1.73845 4.72078 0.76397 -3.45332 4.50596 2.69751 
1876.42 793.974 1950.37 70.2204 -38.2223 73.6687 -137.578 -66.1099 142.386 -3.77445 32.5869 -0.329655 105.533 -10.0636 -23.7195 7.7894 -14.1595 -14.6354 -141.45 87.4452 37.5731 -5.73894 -15.5673 3.93373 21.0183 16.542 13.4308 2.22536 -1.8981 20.3796 -1.6883 7.84903 -89.628 11.194 -3.18725 1.05394 -0.47358 -3.13779 1.19331 -23.04 -3.35651 0.0462783 -3.02736 -3.35651 0.0462831 94.6092 -32.0352 -96.7271 44.7463 -10.3643 49.7954 -11.7625 -7.73872 -77.8761 -14.5098 -0.520706 -1.54585 -90.7322 -41.4665 75.9765 -32.9597 2.6347 -6.56481 13.3708 -7.13293 -114.967 30.5553 -0.724192 -6.51962 1.37875 4.29006 0.97773 -3.99587 4.03838 2.88734 
2095.57 847.13 2149.69 72.1922 -39.1603 73.7936 -118.425 -73.2277 161.78 -2.09493 30.269 -0.139187 99.3326 -13.2177 -25.0011 6.12918 -15.201 -12.2632 179.58 82.0839 76.66 -5.55746 -15.6499 4.72999 24.0545 15.6843 11.9135 3.94666 -1.53896 19.6129 -1.41435 7.97479 -89.6563 10.9371 -2.65671 0.935271 -0.731564 -2.613 1.05135 -23.2884 -2.81489 0.0929791 -3.27578 -2.81491 0.0929613 94.8422 -32.5184 -96.1629 44.8826 -8.25945 46.0603 -9.74174 -4.43062 -78.0836 -15.4296 -0.520727 -1.55394 -92.0121 -42.9156 74.3154 -33.9448 2.82154 -3.55446 13.7131 -3.40767 -104.605 31.1845 -0.230923 -4.83556 0.453715 3.294 1.73681 -3.96602 2.95723 2.93428 
